<svg xmlns="http://www.w3.org/2000/svg" viewBox="0 0 122.5 92.51"><defs><style>.cls-1{fill:#fff;}</style></defs><title>Asset 1</title><g id="Layer_2" data-name="Layer 2"><g id="Layer_1-2" data-name="Layer 1"><path class="cls-1" d="M14.63,10.31c-.2.08-.13.36.08.29,18.35-6,46.34-5.68,56.91,4.87C65.09,25,35.25,43.66,2.89,54.87l.3-.1q-1.52.51-3,1c-.42.22,0,.45.24.45h0c18.06-3.7,70.24-19.47,87.84-45.67C76.48-1.45,44-5.35,14.63,10.31Z"/><path class="cls-1" d="M47.43,56.54c-.17.07-.11.31.07.25C63.47,51.53,87.83,51.84,97,61c-5.69,8.33-33.14,22.48-61.87,30.44l.26-.07-2.67.7c-.38.17,0,.39.18.4h0c15.89-2.22,63.25-13,78.57-35.75C101.26,46.3,73,42.91,47.43,56.54Z"/><path class="cls-1" d="M122.4,34c-9.11-9.29-33.22-11.59-54.59-.21h0a.31.31,0,0,0-.18.39.28.28,0,0,0,.36.16c13.56-4.46,34-4.12,41.74,3.45-5,7.14-26.89,20.7-50.58,28.91h0l-2,.66c-.21.11-.25.23-.25.32a.32.32,0,0,0,0,.06.51.51,0,0,0,.48.31c13.67-2.8,51.93-14.32,65-33.81l.08-.12Z"/></g></g></svg>
