<?xml version="1.0" encoding="UTF-8"?><svg width="1440px" height="770px" xmlns="http://www.w3.org/2000/svg" xmlns:xlink="http://www.w3.org/1999/xlink"><defs><polygon id="a" points="0 0 1440 0 1440 770 5.32907052e-15 770"/><radialGradient cx="0%" cy="77.8621928%" fx="0%" fy="77.8621928%" r="204.437608%" gradientTransform="matrix(.44323 -.5594 .29912 .8289 -.23 .13)" id="c"><stop stop-color="#DEF4EA" offset="0%"/><stop stop-color="#EAF4F4" offset="27.9095178%"/><stop stop-color="#EEF3F6" offset="42.0610549%"/><stop stop-color="#F0F3F7" offset="54.6355672%"/><stop stop-color="#F4F3FA" offset="76.779263%"/><stop stop-color="#F4F3FA" offset="100%"/></radialGradient><linearGradient x1="72.0561326%" y1="0%" x2="72.0561301%" y2="100%" id="e"><stop stop-color="#E3D0EA" stop-opacity="0" offset="0%"/><stop stop-color="#E3D0EA" stop-opacity="0.3" offset="100%"/></linearGradient><polygon id="d" points="0 0 1440 0 1440 770 5.32907052e-15 770"/><radialGradient cx="13.1756637%" cy="52.3010201%" fx="13.1756637%" fy="52.3010201%" r="67.7452055%" gradientTransform="matrix(.39262 .41422 -.38982 1.9857 .28 -.57)" id="f"><stop stop-color="#4DAA69" stop-opacity="0.3" offset="0%"/><stop stop-color="#6744B1" stop-opacity="0" offset="100%"/></radialGradient><filter x="-12.1%" y="-26.2%" width="124.3%" height="152.4%" filterUnits="objectBoundingBox" id="g"><feGaussianBlur stdDeviation="50" in="SourceGraphic"/></filter><linearGradient x1="92.720929%" y1="36.0837904%" x2="6.84323861%" y2="69.0466553%" id="h"><stop stop-color="#E7CFEA" offset="0%"/><stop stop-color="#A8B4D2" offset="38.6831647%"/><stop stop-color="#AAD8CA" offset="70.8295701%"/><stop stop-color="#DEF4EA" offset="100%"/></linearGradient><filter x="-15.0%" y="-32.3%" width="129.9%" height="164.6%" filterUnits="objectBoundingBox" id="i"><feGaussianBlur stdDeviation="50" in="SourceGraphic"/></filter></defs><g fill="none" fill-rule="evenodd"><mask id="b" fill="#fff"><use xlink:href="#a"/></mask><use fill="#F4F3FA" xlink:href="#a"/><g mask="url(#b)"><use fill="url(#c)" xlink:href="#d"/><use fill="url(#e)" xlink:href="#d"/></g><polygon fill="url(#f)" opacity="0.5" mask="url(#b)" points="197 943 1977 234 1557 -6 -223 703"/><g mask="url(#b)"><path d="M678.75 24.98l46.9-19.77c16.07-6.8 41.8-6.08 57.48 1.58l446.35 218.09c8.62 4.08 15 8.57 15 15.41.1 3.32 0 2 0 5.67s-7.93 9.53-15.26 12.76L962.16 376.4l-.01-.13c-4.33.8-6.29 1.12-17.42 6.13l-117.88 51.83c-4.58 2.11-7.04 3.46-8.48 4.5a7.34 7.34 0 0 0-1.88 1.85L529.53 567.03c-21.47 8.9-44.15 8.5-62.78-.41L22.79 347.18c-8.07-3.24-14.18-10-14.18-14.58V316c0-7.44 6.8-11.44 15.85-15.27l57.6-24.27 6.35 3.1L684.27 27.74l-5.52-2.75z" fill-opacity="0.4" fill="#E3D0EA" filter="url(#g)" transform="translate(-115.17 394.6)"/><path d="M543.29 74.58l38.02-16.03c13.03-5.5 33.9-4.93 46.6 1.29l361.86 176.8c7 3.31 12.16 6.95 12.16 12.5.08 2.69 0 1.62 0 4.6 0 2.97-6.42 7.72-12.37 10.34l-216.5 95.4c0-.07-.01-.1-.02-.1-3.5.65-5.1.9-14.12 4.97l-95.56 42.01c-3.72 1.72-5.7 2.8-6.88 3.66a5.95 5.95 0 0 0-1.52 1.5l-232.64 102.5c-17.4 7.23-35.8 6.9-50.9-.32L11.49 335.8C4.95 333.15 0 327.67 0 323.97v-13.46c0-6.03 5.5-9.28 12.85-12.38l46.7-19.68 5.14 2.52L547.76 76.82l-4.47-2.24z" fill="url(#h)" filter="url(#i)" transform="translate(-115.17 394.6)"/></g></g></svg>