<svg xmlns="http://www.w3.org/2000/svg" data-name="Layer 1" width="50" height="50" style=""><rect id="backgroundrect" width="100%" height="100%" x="0" y="0" fill="none" stroke="none"/>
  <title>Storage</title>
  
<g class="currentLayer" style=""><title>Layer 1</title><g id="svg_1" class="">
    <path d="M24.999999510726433,2.1378272943410677 L49.068485886800644,5.667010099004161 v2.078097489040195 c0,3.090274283270979 -10.780865406943425,5.580408343413974 -24.077568823763286,5.580408343413974 s-24.0684863760742,-2.4901340601429927 -24.0684863760742,-5.580408343413974 V5.487863763742072 z" fill="#8c3123" id="svg_2"/>
    <path d="M24.999999510726433,17.132375555777646 c10.054269591816658,0 18.66443000106886,-1.4242133653335833 22.270161733635447,-3.4485669537951513 l1.180718199580999,-1.9706096878829458 l0.48136972752148555,-1.791463352620858 v2.221414557249864 l-7.8744821464363515,33.14207202348587 c0,2.060182855513987 -7.184216122065922,3.717286456688281 -16.0486850666125,3.717286456688281 s-16.03960261892341,-1.6571036011742946 -16.03960261892341,-3.717286456688281 l-7.8744821464363515,-33.14207202348587 V9.966522145294213 l1.816489537816921,3.788944990793115 C6.526300911128352,15.743991457496488 15.054719291178792,17.132375555777646 24.999999510726433,17.132375555777646 z" fill="#8c3123" id="svg_3"/>
    <path d="M24.999999510726433,-0.08358726290879641 c13.296703416819861,0 24.077568823763286,2.4990913769060965 24.077568823763286,5.571451026650868 S38.28762047985721,11.041400156866736 24.999999510726433,11.041400156866736 S0.9315131346522362,8.578138047013052 0.9315131346522362,5.487863763742072 S11.703296093906577,-0.08358726290879641 24.999999510726433,-0.08358726290879641 z" fill="#e05243" id="svg_4"/>
    <path d="M24.999999510726433,14.910960998527791 c12.397541095600484,0 22.597129850442496,-2.158713339908134 23.923167213048846,-4.9533961699966715 l-7.8744821464363515,33.14207202348587 c0,2.060182855513987 -7.184216122065922,3.717286456688281 -16.0486850666125,3.717286456688281 S8.95131444411394,45.16877702429407 8.95131444411394,43.10859416878008 l-7.8744821464363515,-33.14207202348587 C2.4119521079730264,12.752247658619648 12.611540862815037,14.910960998527791 24.999999510726433,14.910960998527791 z" fill="#e05243" id="svg_5"/>
    <rect x="19.332550628278955" y="18.072892449125533" width="10.426649531307666" height="10.211340768244373" fill="#fff" id="svg_6"/>
    <ellipse cx="16.180943636148207" cy="36.9280469690162" rx="5.140665253434733" ry="5.0340119183562555" fill="#fff" id="svg_7"/>
    <polygon points="37.79717254638672,41.729166047647134 27.497671127319336,41.729166047647134 32.64741897583008,32.341898686921006 37.79717254638672,41.729166047647134 " fill="#fff" fill-rule="evenodd" id="svg_8"/>
  </g></g></svg>