<svg xmlns="http://www.w3.org/2000/svg" data-name="Layer 1" width="32" height="32" style=""><rect id="backgroundrect" width="100%" height="100%" x="0" y="0" fill="none" stroke="none" class="" style=""/>
  <title>Storage</title>
  
<g class="currentLayer" style=""><title>Layer 1</title><g id="svg_1" class="">
    <path d="M15.998629943818269,1.5026471351201711 L31.90134804581507,3.7970644165336322 v1.3510274347409195 c0,2.00907096976559 -7.123217504554794,3.627974533808586 -15.908719127695665,3.627974533808586 s-15.902718101996802,-1.6189035640429972 -15.902718101996802,-3.627974533808586 V3.6805965342283744 z" fill="#8c3123" id="svg_2"/>
    <path d="M15.998629943818269,11.251008884069726 c6.643135448645456,0 12.332107811171108,-0.9259196643267502 14.71451501362119,-2.2420067343760923 l0.7801333408526744,-1.2811467053577668 l0.31805436203993664,-1.1646788230525151 v1.4442017405851197 l-5.202889280917443,21.546558226471536 c0,1.3393806465103928 -4.746811327803574,2.4167085578339704 -10.603812409897493,2.4167085578339704 s-10.597811384198625,-1.0773279113235772 -10.597811384198625,-2.4167085578339704 l-5.202889280917443,-21.546558226471536 V6.5922935918596615 l1.2002051397733433,2.46329571075607 C3.7925436723233674,10.348382796204026 9.427506803559211,11.251008884069726 15.998629943818269,11.251008884069726 z" fill="#8c3123" id="svg_3"/>
    <path d="M15.998629943818269,0.05844539453506002 c8.785501623140876,0 15.908719127695665,1.6247269581582604 15.908719127695665,3.622151139693323 S24.77813054126028,7.291100885691177 15.998629943818269,7.291100885691177 S0.09591184182146772,5.689667503993967 0.09591184182146772,3.6805965342283744 S7.213128320677399,0.05844539453506002 15.998629943818269,0.05844539453506002 z" fill="#e05243" id="svg_4"/>
    <path d="M15.998629943818269,9.806807143484605 c8.191400078953071,0 14.930551938780395,-1.4034379817782816 15.806701690814934,-3.220336945740206 l-5.202889280917443,21.546558226471536 c0,1.3393806465103928 -4.746811327803574,2.4167085578339704 -10.603812409897493,2.4167085578339704 S5.3948175339207785,29.478232464841593 5.3948175339207785,28.138851818331197 l-5.202889280917443,-21.546558226471536 C1.074079030736744,8.403369161706323 7.8132308905640695,9.806807143484605 15.998629943818269,9.806807143484605 z" fill="#e05243" id="svg_5"/>
    <rect x="12.253988900473196" y="11.862464377592875" width="6.889177227593836" height="6.638669069254481" fill="#fff" id="svg_6"/>
    <ellipse cx="10.171634539628998" cy="24.12071076737945" rx="3.3965804539901763" ry="3.272747426134112" fill="#fff" id="svg_7"/>
    <polygon points="24.454072952270508,27.242050074562822 17.64891242980957,27.242050074562822 21.051494598388672,21.139134661061345 24.454072952270508,27.242050074562822 " fill="#fff" fill-rule="evenodd" id="svg_8"/>
  </g></g></svg>